<svg width="25" height="30" viewBox="0 0 25 30" fill="none" xmlns="http://www.w3.org/2000/svg">
<path d="M20.1214 15.8977C20.0812 12.254 23.1299 10.4785 23.277 10.399C21.5521 7.90796 18.8778 7.56346 17.9419 7.53696C15.6955 7.29846 13.516 8.86196 12.3794 8.86196C11.2161 8.86196 9.45113 7.55021 7.55242 7.58996C5.10548 7.62971 2.81901 9.03421 1.57548 11.2072C-1.00516 15.646 0.920293 22.165 3.39397 25.7557C4.63749 27.518 6.08158 29.479 7.9803 29.3995C9.83889 29.32 10.5342 28.2335 12.7672 28.2335C14.9868 28.2335 15.6286 29.3995 17.5675 29.3597C19.5598 29.3332 20.8167 27.5975 22.0067 25.822C23.4374 23.808 24.0124 21.8205 24.0391 21.7277C23.9723 21.7145 20.1615 20.2702 20.1214 15.8977Z" fill="white"/>
<path d="M16.4694 5.17845C17.4722 3.9462 18.1541 2.26345 17.9536 0.554199C16.5095 0.620449 14.7044 1.54795 13.6614 2.7537C12.7388 3.8137 11.9231 5.5627 12.1371 7.2057C13.755 7.32495 15.4264 6.39745 16.4694 5.17845Z" fill="white"/>
</svg>
